<svg version="1" xmlns="http://www.w3.org/2000/svg" width="682.667" height="682.667" viewBox="0 0 512.000000 512.000000"><path d="M501.6 36c-4.9 2.8-9 5-9.2 5-1.8 0-58.3 37.2-63 41.5-.6.5-2.2 1.7-3.4 2.5-4.9 3.3-24 17.7-32.9 24.9-5.2 4.2-13.1 10.5-17.5 14-4.5 3.5-8.3 6.7-8.6 7.1-.3.4-4.3 3.9-9 7.9s-12.1 10.5-16.4 14.4c-4.3 4-8.8 8-10 9-5.1 4.4-29 27.4-42.6 41-12.8 12.8-19.3 19.6-40 41.6-1.9 2.1-6.9 7.5-11 12-4.1 4.6-8 8.9-8.5 9.5-13.3 14.1-54.5 64.2-72.2 87.6-4 5.2-7.6 9.9-8 10.5-.5.5-2.8 3.6-5.2 6.7l-4.3 5.8-6.2-3.4c-3.3-1.8-9.2-5-13.1-7.1-3.8-2.1-9.2-5-12-6.5-2.7-1.5-8.1-4.4-12-6.5-3.8-2.1-9.2-5-12-6.5-6-3.3-13.1-7.2-24-13-4.4-2.3-9.3-5-11-6-1.6-.9-7-3.9-12-6.5-4.9-2.7-11.2-6-14-7.5-2.7-1.5-7.7-4.2-11-6-3.3-1.8-7.1-3.9-8.3-4.7-4.3-2.6-2.7-.8 16.3 20.1 1.1 1.2 5.2 5.7 9 10.1 3.9 4.3 8.1 9 9.5 10.6 8 8.8 16.8 18.5 18.5 20.5 2.9 3.2 15.7 17.5 17.5 19.4.8.9 3.3 3.6 5.4 6 6.1 7 17.8 20 21.2 23.7 1.8 1.8 5.6 6.1 8.5 9.4 3 3.4 6.9 7.8 8.8 9.8 1.8 2 6.1 6.7 9.5 10.5 3.3 3.8 6.6 7.4 7.1 8 .6.6 4.4 4.9 8.5 9.6 4.1 4.6 8.4 9.3 9.5 10.5 1.1 1.1 3.9 4.1 6.2 6.7 2.3 2.6 4.4 4.4 4.6 4 .3-.4 4.2-7.9 8.7-16.7 4.6-8.8 8.7-16.1 9.2-16.3.4-.2.8-.9.8-1.5 0-1.2 11.9-23.1 21.2-39.2 1.6-2.8 3.2-5.8 3.5-6.8.3-.9.9-1.7 1.4-1.7.5 0 .9-.5.9-1 0-1.1 21.2-36.6 33.6-56.5 7.7-12.3 34.4-52.6 35.4-53.5.3-.3 1.9-2.5 3.5-5 1.7-2.5 3.4-5 3.8-5.5.4-.6 3.7-5.1 7.2-10 3.6-5 7.2-9.9 8-11 .9-1.1 4.6-6.1 8.2-11 3.7-5 6.9-9.2 7.2-9.5.4-.3 2.6-3.2 5.1-6.5 2.4-3.3 4.8-6.5 5.2-7 2.3-2.9 8.2-10.3 9.6-12 1-1.1 3.5-4.2 5.7-7 2.2-2.7 4.7-5.8 5.5-6.8 2.2-2.7 4.5-5.5 9.4-11.2 2.4-2.8 8.8-10.2 14.2-16.5 5.4-6.3 10.3-12 10.9-12.6.5-.6 5.3-5.7 10.5-11.5 22.6-24.7 52.4-54.8 75.5-76.4 7-6.6 13.8-12.9 14.9-14 1.6-1.5 24.4-21.6 27.5-24.2 1.5-1.2-1.5.3-9.3 4.7z"/></svg>